<?xml version="1.0" encoding="UTF-8" standalone="no"?>
<!-- Created with Inkscape (http://www.inkscape.org/) -->

<svg
   width="50.740158mm"
   height="50.74017mm"
   viewBox="0 0 50.740158 50.74017"
   version="1.1"
   id="svg5"
   xml:space="preserve"
   xmlns="http://www.w3.org/2000/svg"
   xmlns:svg="http://www.w3.org/2000/svg"><defs
     id="defs2" /><g
     id="layer3"
     transform="translate(-87.436419,-23.293124)"><circle
       style="display:inline;fill:#241c1c;fill-rule:evenodd;stroke-width:0.28972"
       id="path165-7-5-9"
       cx="112.8065"
       cy="48.663208"
       r="25.370083" /><circle
       style="fill:#ffe6d5;fill-rule:evenodd;stroke-width:0.264583"
       id="path165-7-1-2"
       cx="112.8065"
       cy="48.663208"
       r="23.168873" /></g><g
     id="layer6"
     style="fill:#ac9393"
     transform="translate(-140.86868,36.03622)"><path
       id="path165-7-2"
       style="fill:#ff9955;fill-rule:evenodd;stroke-width:0.264583"
       d="m 151.51775,-15.329344 -1.44436,4.895308 -6.70553,3.5336345 a 23.168873,23.168873 0 0 0 22.87096,19.5073365 23.168873,23.168873 0 0 0 23.11486,-21.7232219 l -2.56005,-3.7899491 -7.92716,8.5286779 -3.07216,-2.247408 -6.60787,4.8627523 -7.19491,-2.4132894 -5.84977,-5.1283691 -1.2361,-3.4235637 -2.4629,-1.123446 z" /><path
       id="path165-7"
       style="fill:#c83737;fill-rule:evenodd;stroke-width:0.264583"
       d="m 146.73096,-3.8681176 c -0.30459,0.01001 -0.4749,0.078031 -0.4749,0.078031 l -1.67122,1.455725 a 23.168873,23.168873 0 0 0 21.65397,14.9530926 23.168873,23.168873 0 0 0 18.29708,-8.9715446 c -1.58526,-0.273583 -3.21428,-0.823206 -3.21428,-0.823206 0,0 -4.13436,-1.354598 -7.11223,0.795817 -2.97786,2.150412 -6.5908,1.980758 -6.5908,1.980758 0,0 -8.9644,-1.852212 -9.63921,-3.182235 -0.67482,-1.330022 -2.71973,-2.64634994 -2.71973,-2.64634994 0,0 -4.3218,-1.20248206 -6.05648,-2.62412906 -1.08417,-0.888528 -1.96455,-1.032642 -2.4722,-1.015959 z" /><path
       id="path165-7-1"
       style="fill:#241c1c;fill-rule:evenodd;stroke-width:0.372267"
       d="m 156.16395,5.9414984 c -0.80104,0.025138 -0.97062,0.8948749 -5.72322,2.7692287 a 29.460084,36.071176 0 0 0 15.20626,5.1997459 29.460084,36.071176 0 0 0 15.47305,-5.4049038 c -0.40387,-0.2949169 -0.78209,-0.510629 -1.11574,-0.6130593 -2.5517,-0.7834053 -4.25807,0.7169997 -7.69971,2.2511031 -3.44167,1.534107 -11.30102,-2.9002758 -14.59255,-3.8537485 -0.82288,-0.2383678 -1.23462,-0.3582026 -1.54809,-0.3483661 z" /></g><g
     id="layer4"
     style="display:inline"
     transform="translate(-87.436419,-23.293124)"><path
       id="path329"
       style="fill:#241c1c;stroke-width:0.114079"
       d="m 112.92867,33.897088 -10.95181,5.475909 h 2.62397 v 8.099266 h -3.65102 v 5.704477 h 3.53026 l -1.94688,17.52068 a 27.622596,27.622596 0 0 0 1.98631,0.721453 l 0.29573,-2.660327 5.24241,3.812437 a 27.622596,27.622596 0 0 0 2.87103,0.168188 27.622596,27.622596 0 0 0 2.87041,-0.168188 l 5.24303,-3.813057 0.29511,2.660327 a 27.622596,27.622596 0 0 0 1.98569,-0.720225 L 121.37603,53.17674 h 3.53026 v -5.704477 h -3.65039 v -8.099266 h 2.62396 z m -5.47591,7.300799 h 3.65041 v 5.475909 h -3.65041 z m 7.3008,0 h 3.6504 v 5.475909 h -3.6504 z m -11.75028,8.327842 h 1.59755 v 1.597551 h -1.59755 z m 3.65101,0 h 1.59693 v 1.597551 h -1.59693 z m 3.65041,0 h 1.59693 v 1.597551 h -1.59693 z m 3.6504,0 h 1.59693 v 1.597551 h -1.59693 z m 3.6504,0 h 1.59755 v 1.597551 h -1.59755 z m 3.6504,0 h 1.59754 v 1.597551 h -1.59754 z m -12.92828,3.651011 h 9.20148 l -4.60043,4.08907 z m 11.10092,1.058461 0.46516,4.188871 h -5.17772 z m -12.99974,6.2e-4 4.71195,4.188251 h -5.17772 z m -0.69373,6.241722 h 3.58017 l -3.97262,3.530881 z m 6.67114,0 h 1.0443 l 5.90348,5.247941 h -12.85125 z m 4.13527,0 h 3.58017 l 0.39246,3.530881 z m -9.58221,7.300788 h 11.93819 l -5.96879,4.341656 z" /></g></svg>
