<?xml version="1.0" encoding="UTF-8" standalone="no"?>
<!-- Created with Inkscape (http://www.inkscape.org/) -->

<svg
   width="210mm"
   height="297mm"
   viewBox="0 0 210 297"
   version="1.1"
   id="svg5"
   xml:space="preserve"
   inkscape:version="1.2.2 (b0a8486541, 2022-12-01)"
   sodipodi:docname="ql-logo.svg"
   xmlns:inkscape="http://www.inkscape.org/namespaces/inkscape"
   xmlns:sodipodi="http://sodipodi.sourceforge.net/DTD/sodipodi-0.dtd"
   xmlns="http://www.w3.org/2000/svg"
   xmlns:svg="http://www.w3.org/2000/svg"><sodipodi:namedview
     id="namedview7"
     pagecolor="#505050"
     bordercolor="#eeeeee"
     borderopacity="1"
     inkscape:showpageshadow="0"
     inkscape:pageopacity="0"
     inkscape:pagecheckerboard="0"
     inkscape:deskcolor="#505050"
     inkscape:document-units="mm"
     showgrid="false"
     inkscape:zoom="4"
     inkscape:cx="385.75"
     inkscape:cy="187"
     inkscape:window-width="1276"
     inkscape:window-height="1020"
     inkscape:window-x="0"
     inkscape:window-y="0"
     inkscape:window-maximized="0"
     inkscape:current-layer="layer3" /><defs
     id="defs2" /><g
     inkscape:groupmode="layer"
     id="layer3"
     inkscape:label="background"><circle
       style="display:inline;fill:#241c1c;fill-rule:evenodd;stroke-width:0.28972"
       id="path165-7-5-9"
       cx="112.8065"
       cy="48.663208"
       r="25.370083"
       inkscape:label="border" /><circle
       style="fill:#ffe6d5;fill-rule:evenodd;stroke-width:0.264583"
       id="path165-7-1-2"
       cx="112.8065"
       cy="48.663208"
       r="23.168873"
       inkscape:label="background" /></g><g
     inkscape:groupmode="layer"
     id="layer6"
     inkscape:label="mountains"
     style="fill:#ac9393"
     transform="translate(-53.432265,59.329344)"><path
       id="path165-7-2"
       style="fill:#ff9955;fill-rule:evenodd;stroke-width:0.264583"
       d="m 151.51775,-15.329344 -1.44436,4.895308 -6.70553,3.5336345 a 23.168873,23.168873 0 0 0 22.87096,19.5073365 23.168873,23.168873 0 0 0 23.11486,-21.7232219 l -2.56005,-3.7899491 -7.92716,8.5286779 -3.07216,-2.247408 -6.60787,4.8627523 -7.19491,-2.4132894 -5.84977,-5.1283691 -1.2361,-3.4235637 -2.4629,-1.123446 z"
       inkscape:label="1" /><path
       id="path165-7"
       style="fill:#c83737;fill-rule:evenodd;stroke-width:0.264583"
       inkscape:label="2"
       d="m 146.73096,-3.8681176 c -0.30459,0.01001 -0.4749,0.078031 -0.4749,0.078031 l -1.67122,1.455725 a 23.168873,23.168873 0 0 0 21.65397,14.9530926 23.168873,23.168873 0 0 0 18.29708,-8.9715446 c -1.58526,-0.273583 -3.21428,-0.823206 -3.21428,-0.823206 0,0 -4.13436,-1.354598 -7.11223,0.795817 -2.97786,2.150412 -6.5908,1.980758 -6.5908,1.980758 0,0 -8.9644,-1.852212 -9.63921,-3.182235 -0.67482,-1.330022 -2.71973,-2.64634994 -2.71973,-2.64634994 0,0 -4.3218,-1.20248206 -6.05648,-2.62412906 -1.08417,-0.888528 -1.96455,-1.032642 -2.4722,-1.015959 z" /><path
       id="path165-7-1"
       style="fill:#241c1c;fill-rule:evenodd;stroke-width:0.372267"
       inkscape:label="3"
       d="m 156.16395,5.9414984 c -0.80104,0.025138 -0.97062,0.8948749 -5.72322,2.7692287 a 29.460084,36.071176 0 0 0 15.20626,5.1997459 29.460084,36.071176 0 0 0 15.47305,-5.4049038 c -0.40387,-0.2949169 -0.78209,-0.510629 -1.11574,-0.6130593 -2.5517,-0.7834053 -4.25807,0.7169997 -7.69971,2.2511031 -3.44167,1.534107 -11.30102,-2.9002758 -14.59255,-3.8537485 -0.82288,-0.2383678 -1.23462,-0.3582026 -1.54809,-0.3483661 z" /></g><g
     inkscape:groupmode="layer"
     id="layer4"
     inkscape:label="tower"
     style="display:inline"><path
       id="path329"
       style="fill:#241c1c;stroke-width:0.114079"
       d="m 112.92867,33.897088 -10.95181,5.475909 h 2.62397 v 8.099266 h -3.65102 v 5.704477 h 3.53026 l -1.94688,17.52068 a 27.622596,27.622596 0 0 0 1.98631,0.721453 l 0.29573,-2.660327 5.24241,3.812437 a 27.622596,27.622596 0 0 0 2.87103,0.168188 27.622596,27.622596 0 0 0 2.87041,-0.168188 l 5.24303,-3.813057 0.29511,2.660327 a 27.622596,27.622596 0 0 0 1.98569,-0.720225 L 121.37603,53.17674 h 3.53026 v -5.704477 h -3.65039 v -8.099266 h 2.62396 z m -5.47591,7.300799 h 3.65041 v 5.475909 h -3.65041 z m 7.3008,0 h 3.6504 v 5.475909 h -3.6504 z m -11.75028,8.327842 h 1.59755 v 1.597551 h -1.59755 z m 3.65101,0 h 1.59693 v 1.597551 h -1.59693 z m 3.65041,0 h 1.59693 v 1.597551 h -1.59693 z m 3.6504,0 h 1.59693 v 1.597551 h -1.59693 z m 3.6504,0 h 1.59755 v 1.597551 h -1.59755 z m 3.6504,0 h 1.59754 v 1.597551 h -1.59754 z m -12.92828,3.651011 h 9.20148 l -4.60043,4.08907 z m 11.10092,1.058461 0.46516,4.188871 h -5.17772 z m -12.99974,6.2e-4 4.71195,4.188251 h -5.17772 z m -0.69373,6.241722 h 3.58017 l -3.97262,3.530881 z m 6.67114,0 h 1.0443 l 5.90348,5.247941 h -12.85125 z m 4.13527,0 h 3.58017 l 0.39246,3.530881 z m -9.58221,7.300788 h 11.93819 l -5.96879,4.341656 z"
       inkscape:label="tower" /></g><g
     inkscape:groupmode="layer"
     id="layer5"
     inkscape:label="stuff"
     style="display:inline"><path
       d="m 45.690455,39.825155 -9.18581,4.592905 h 2.20078 v 6.793672 h -3.06195 v 4.784274 h 2.96099 l -2.54379,22.89219 -0.0625,0.0456 0.05,0.0689 -0.39948,3.59453 -0.0951,0.85591 1.71181,0.19033 0.0953,-0.85601 0.255,-2.29607 h 16.1498 l 0.25501,2.29588 0.0951,0.8559 1.71181,-0.19033 -0.0953,-0.85581 -0.39939,-3.59461 0.05,-0.0689 -0.0627,-0.0455 -2.54379,-22.89201 h 2.96107 v -4.784274 h -3.06192 V 44.41806 h 2.20076 z m -4.59289,6.123874 h 3.06192 v 4.592903 h -3.06192 z m 6.12386,0 h 3.06194 v 4.592903 h -3.06194 z m -9.85562,6.985042 h 1.33961 v 1.339595 h -1.33961 z m 3.06194,0 h 1.33961 v 1.339595 h -1.33961 z m 3.06195,0 h 1.3396 v 1.339595 h -1.3396 z m 3.06194,0 h 1.3396 v 1.339595 h -1.3396 z m 3.06194,0 h 1.33958 v 1.339595 h -1.33958 z m 3.06194,0 h 1.33958 v 1.339595 h -1.33958 z m -10.84386,3.061935 h 7.71761 l -3.85881,3.43014 z m -1.59316,0.88825 3.95257,3.51329 h -4.34269 l 0.39041,-3.51329 z m 10.90384,0 0.39039,3.51329 h -4.34269 z m -11.48532,5.23562 h 3.00289 l -3.33196,2.96175 0.32917,-2.96175 z m 5.5954,0 h 0.87609 l 4.95173,4.40154 h -10.77955 z m 3.46859,0 h 3.00291 l 0.32914,2.96175 -3.33223,-2.96175 z m -8.037,6.12388 h 10.01292 l -5.00647,3.64113 z m -1.7989,0.82156 4.92255,3.57998 h -5.32012 l 0.39777,-3.57998 z m 13.6106,0 0.39776,3.57998 h -5.32009 l 4.92243,-3.57998 z m -14.19944,5.30232 h 3.98051 l -4.33072,3.14939 z m 6.90897,0 h 0.97063 l 6.05212,4.40153 h -13.07495 l 6.0521,-4.40153 z m 3.89918,0 h 3.98054 l 0.35001,3.14939 -4.33064,-3.14939 z"
       fill="#ffffff"
       fill-opacity="1"
       id="path329-3"
       style="stroke-width:0.0956854" /><circle
       style="fill:#241c1c;fill-rule:evenodd;stroke-width:0.264583"
       id="path165-7-5"
       cx="41.396069"
       cy="27.629906"
       r="23.168873" /></g></svg>
